<svg width="88" height="88" viewBox="0 0 88 88" fill="none" xmlns="http://www.w3.org/2000/svg">
<path d="M14.6667 32.9998H33C33 28.9665 29.7 25.6665 25.6667 25.6665H14.6667C12.65 25.6665 11 27.3165 11 29.3332C11 31.3498 12.65 32.9998 14.6667 32.9998Z" fill="#F15D2D"/>
<path d="M80.667 51.5527V29.3327C80.667 25.2994 77.367 21.9994 73.3337 21.9994H50.2703L46.3837 18.1127L51.5537 12.9427L48.9503 10.3394L36.007 23.2827L38.6103 25.886L43.7803 20.716L47.667 24.6027V32.9994C47.667 37.0327 44.367 40.3327 40.3337 40.3327H32.8537C32.047 39.746 31.2037 39.2327 30.3237 38.756L28.857 42.0194L27.1703 41.2494L28.637 37.9494C26.6203 37.1427 24.347 36.666 22.0003 36.666C20.057 36.666 18.187 37.0694 16.427 37.6194L17.6737 40.956L15.9503 41.616L14.667 38.206C10.7969 39.8991 7.64374 42.8966 5.75699 46.676L9.02033 48.1427L8.25033 49.8294L4.95033 48.3627C4.14366 50.3794 3.66699 52.6527 3.66699 54.9994C3.66699 56.9427 4.07033 58.8127 4.62033 60.5727L7.95699 59.326L8.61699 61.0494L5.20699 62.3327C6.90008 66.2028 9.89756 69.356 13.677 71.2427L15.1437 67.9794L16.8303 68.7494L15.3637 72.0494C17.3803 72.856 19.6537 73.3327 22.0003 73.3327C23.9437 73.3327 25.8137 72.9294 27.5737 72.3794L26.327 69.0427L28.0503 68.3827L29.3337 71.7927C33.2037 70.0996 36.3569 67.1021 38.2437 63.3227L34.9803 61.856L35.7503 60.1694L39.0503 61.636C39.417 60.6827 39.7103 59.656 39.9303 58.6294H58.8503C58.777 59.2527 58.667 59.876 58.667 60.4994C58.667 67.576 64.4237 73.3327 71.5003 73.3327C78.577 73.3327 84.3337 67.576 84.3337 60.4994C84.3337 57.016 82.9403 53.8627 80.667 51.5527ZM22.0003 65.9994C15.9137 65.9994 11.0003 61.086 11.0003 54.9994C11.0003 48.9127 15.9137 43.9994 22.0003 43.9994C28.087 43.9994 33.0003 48.9127 33.0003 54.9994C33.0003 61.086 28.087 65.9994 22.0003 65.9994ZM39.857 51.3327C39.7103 50.6727 39.5637 50.0494 39.3803 49.426L36.0437 50.6727L35.3837 48.9494L38.7937 47.666H40.3337C48.437 47.666 55.0003 41.1027 55.0003 32.9994V29.3327H73.3337V47.8494C72.747 47.776 72.1237 47.666 71.5003 47.666C68.017 47.666 64.8637 49.0594 62.5537 51.3327H39.857ZM71.5003 65.9994C68.457 65.9994 66.0003 63.5427 66.0003 60.4994C66.0003 57.456 68.457 54.9994 71.5003 54.9994C74.5437 54.9994 77.0003 57.456 77.0003 60.4994C77.0003 63.5427 74.5437 65.9994 71.5003 65.9994Z" fill="#F15D2D"/>
<path opacity="0.3" d="M73.3339 47.8502V29.3335H55.0006V33.0002C55.0006 41.1035 48.4373 47.6668 40.3339 47.6668H38.7939C39.3073 48.8402 39.7106 50.0502 39.9673 51.3335H62.5539C64.8639 49.0602 68.0173 47.6668 71.5006 47.6668C72.1239 47.6668 72.7473 47.7768 73.3339 47.8502Z" fill="#F15D2D"/>
</svg>
