<svg width="78" height="78" viewBox="0 0 78 78" fill="none" xmlns="http://www.w3.org/2000/svg">
<path d="M22.665 44.17C23.5117 44.376 24.3787 44.4867 25.25 44.5C27.4345 44.4994 29.5694 43.8484 31.3825 42.63L40.2375 50.5225C39.536 51.8545 39.1244 53.3199 39.0296 54.8224C38.9348 56.3249 39.159 57.8304 39.6875 59.24C40.2426 60.8372 41.1585 62.2849 42.3639 63.4707C43.5694 64.6564 45.032 65.5483 46.6381 66.0771C48.2442 66.6059 49.9506 66.7572 51.6247 66.5194C53.2988 66.2817 54.8955 65.6611 56.2909 64.7061C57.6862 63.751 58.8426 62.4871 59.6702 61.0126C60.4978 59.5381 60.9743 57.8926 61.0628 56.204C61.1512 54.5154 60.8492 52.8292 60.1801 51.2762C59.511 49.7233 58.493 48.3456 57.205 47.25L64.19 33.2525C65.5534 33.56 66.9647 33.5894 68.3397 33.339C69.7147 33.0886 71.0251 32.5634 72.1925 31.795C74.175 30.5851 75.7237 28.7788 76.6166 26.6348C77.5096 24.4908 77.7011 22.1192 77.1635 19.8597C76.626 17.6002 75.3872 15.5689 73.6244 14.0566C71.8616 12.5444 69.6655 11.629 67.3505 11.4414C65.0356 11.2538 62.7207 11.8038 60.7375 13.0125C58.7543 14.2212 57.2045 16.0266 56.3103 18.1701C55.416 20.3135 55.2232 22.6851 55.7593 24.9448C56.2955 27.2046 57.5331 29.2367 59.295 30.75L52.31 44.7475C51.5514 44.5807 50.7767 44.4977 50 44.5C47.8155 44.5006 45.6806 45.1516 43.8675 46.37L35.0125 38.4775C35.714 37.1455 36.1256 35.6801 36.2204 34.1776C36.3152 32.6751 36.091 31.1696 35.5625 29.76C35.0115 28.1744 34.1049 26.736 32.9122 25.5548C31.7194 24.3737 30.2722 23.4812 28.6813 22.9457C27.0905 22.4101 25.3981 22.2458 23.7339 22.4653C22.0697 22.6847 20.4778 23.2821 19.0802 24.2118C17.6825 25.1414 16.5161 26.3785 15.6703 27.8285C14.8246 29.2785 14.3219 30.9027 14.2007 32.577C14.0796 34.2512 14.3432 35.9309 14.9714 37.4875C15.5996 39.0441 16.5757 40.4363 17.825 41.5575L6 63.75V0.5H0.5V72C0.5 73.4587 1.07946 74.8576 2.11091 75.8891C3.14236 76.9205 4.54131 77.5 6 77.5H77.5V72H7.8425L22.665 44.17ZM66.5 17C67.5878 17 68.6512 17.3226 69.5556 17.9269C70.4601 18.5313 71.1651 19.3902 71.5813 20.3952C71.9976 21.4002 72.1065 22.5061 71.8943 23.573C71.6821 24.6399 71.1583 25.6199 70.3891 26.3891C69.6199 27.1583 68.6399 27.6821 67.573 27.8943C66.5061 28.1065 65.4002 27.9976 64.3952 27.5813C63.3902 27.1651 62.5313 26.4601 61.9269 25.5556C61.3226 24.6512 61 23.5878 61 22.5C61 21.0413 61.5795 19.6424 62.6109 18.6109C63.6424 17.5795 65.0413 17 66.5 17ZM55.5 55.5C55.5 56.5878 55.1774 57.6512 54.5731 58.5556C53.9687 59.4601 53.1098 60.1651 52.1048 60.5813C51.0998 60.9976 49.9939 61.1065 48.927 60.8943C47.8601 60.6821 46.8801 60.1583 46.1109 59.3891C45.3417 58.6199 44.8179 57.6399 44.6057 56.573C44.3935 55.5061 44.5024 54.4002 44.9187 53.3952C45.3349 52.3902 46.0399 51.5313 46.9444 50.9269C47.8488 50.3226 48.9122 50 50 50C51.4587 50 52.8576 50.5795 53.8891 51.6109C54.9205 52.6424 55.5 54.0413 55.5 55.5ZM25.25 28C26.3378 28 27.4012 28.3226 28.3056 28.9269C29.2101 29.5313 29.9151 30.3902 30.3313 31.3952C30.7476 32.4002 30.8565 33.5061 30.6443 34.573C30.4321 35.6399 29.9083 36.6199 29.1391 37.3891C28.3699 38.1583 27.3899 38.6821 26.323 38.8943C25.2561 39.1065 24.1502 38.9976 23.1452 38.5813C22.1402 38.1651 21.2813 37.4601 20.6769 36.5556C20.0726 35.6512 19.75 34.5878 19.75 33.5C19.75 32.0413 20.3295 30.6424 21.3609 29.6109C22.3924 28.5795 23.7913 28 25.25 28Z" fill="#F15D2D"/>
</svg>
