<svg width="88" height="88" viewBox="0 0 88 88" fill="none" xmlns="http://www.w3.org/2000/svg">
<path d="M10.9997 11H76.9997C77.9721 11 78.9048 11.3863 79.5924 12.0739C80.28 12.7616 80.6663 13.6942 80.6663 14.6667V73.3333C80.6663 74.3058 80.28 75.2384 79.5924 75.9261C78.9048 76.6137 77.9721 77 76.9997 77H10.9997C10.0272 77 9.09458 76.6137 8.40695 75.9261C7.71932 75.2384 7.33301 74.3058 7.33301 73.3333V14.6667C7.33301 13.6942 7.71932 12.7616 8.40695 12.0739C9.09458 11.3863 10.0272 11 10.9997 11ZM73.333 40.3333H14.6663V69.6667H73.333V40.3333ZM73.333 33V18.3333H14.6663V33H73.333ZM51.333 55H65.9997V62.3333H51.333V55Z" fill="#F15D2D"/>
</svg>
