<svg width="78" height="74" viewBox="0 0 78 74" fill="none" xmlns="http://www.w3.org/2000/svg">
<path d="M13.7358 0.616211L9.86375 4.48271L15.625 10.2412L19.4915 6.37471L13.733 0.616211H13.7358ZM64.267 0.616211L58.5058 6.37471L62.375 10.2412L68.1335 4.48546L64.2643 0.616211H64.267ZM39 2.33221C38.0925 2.34321 37.174 2.39546 36.25 2.50821C36.2225 2.50821 36.195 2.50271 36.1675 2.50821C25.0135 3.78696 16.1365 12.7987 14.5938 23.9032C13.3617 32.8407 17.0467 40.945 23.1875 46.1645C25.6994 48.3082 27.3984 51.2499 28 54.497V70.997H34.27C35.227 72.6387 36.9733 73.747 39 73.747C41.0267 73.747 42.773 72.6387 43.73 70.997H50V59.997H50.2585V56.73C50.2585 52.6985 52.354 48.634 55.7585 45.4742C60.3125 40.9147 63.75 34.4385 63.75 26.9997C63.75 13.4147 52.5685 2.20571 39 2.33221ZM39 7.83221C49.6287 7.68371 58.25 16.3847 58.25 26.9997C58.25 32.7582 55.5825 37.8292 51.8893 41.5197L51.9772 41.6077C48.307 44.9921 45.9338 49.5519 45.2673 54.4997H33.2388C32.6338 49.7862 30.6125 45.224 26.7927 41.9515C21.9335 37.8265 19.0378 31.6115 20.0058 24.5935C21.2075 15.931 28.2365 8.96521 36.8495 8.01096C37.5606 7.91182 38.2767 7.85306 38.9945 7.83496L39 7.83221ZM0.5 26.9997V32.4997H8.75V26.9997H0.5ZM69.25 26.9997V32.4997H77.5V26.9997H69.25ZM15.625 49.2582L9.8665 55.014L13.7358 58.8832L19.4887 53.1247L15.625 49.2582ZM62.375 49.2582L58.5085 53.1247L64.2643 58.8832L68.1335 55.014L62.375 49.2582ZM33.5 59.9997H44.5V65.4997H33.5V59.9997Z" fill="#F15D2D"/>
</svg>
