<svg width="88" height="88" viewBox="0 0 88 88" fill="none" xmlns="http://www.w3.org/2000/svg">
<path d="M27.5 82.5C30.5376 82.5 33 80.0376 33 77C33 73.9624 30.5376 71.5 27.5 71.5C24.4624 71.5 22 73.9624 22 77C22 80.0376 24.4624 82.5 27.5 82.5Z" fill="#F15D2D"/>
<path d="M66 82.5C69.0376 82.5 71.5 80.0376 71.5 77C71.5 73.9624 69.0376 71.5 66 71.5C62.9624 71.5 60.5 73.9624 60.5 77C60.5 80.0376 62.9624 82.5 66 82.5Z" fill="#F15D2D"/>
<path d="M77 19.2506H16.005L13.75 7.70056C13.6214 7.07005 13.2758 6.50459 12.7734 6.10261C12.2709 5.70063 11.6434 5.48759 11 5.50056H0V11.0006H8.745L19.25 63.8006C19.3786 64.4311 19.7242 64.9965 20.2266 65.3985C20.7291 65.8005 21.3566 66.0135 22 66.0006H71.5V60.5006H24.255L22 49.5006H71.5C72.1357 49.5161 72.7571 49.3108 73.2585 48.9198C73.7599 48.5287 74.1103 47.9759 74.25 47.3556L79.75 22.6056C79.8422 22.1975 79.84 21.7738 79.7437 21.3668C79.6474 20.9597 79.4596 20.5799 79.1944 20.2564C78.9292 19.9329 78.5937 19.6742 78.2135 19.4998C77.8332 19.3255 77.4182 19.2403 77 19.2506ZM69.3 44.0006H20.955L17.105 24.7506H73.5625L69.3 44.0006Z" fill="#F15D2D"/>
</svg>
