<svg width="88" height="88" viewBox="0 0 88 88" fill="none" xmlns="http://www.w3.org/2000/svg">
<path d="M27.5 82.5H11C9.54131 82.5 8.14236 81.9205 7.11091 80.8891C6.07946 79.8576 5.5 78.4587 5.5 77V44C5.5 42.5413 6.07946 41.1424 7.11091 40.1109C8.14236 39.0795 9.54131 38.5 11 38.5H27.5C28.9587 38.5 30.3576 39.0795 31.3891 40.1109C32.4205 41.1424 33 42.5413 33 44V77C33 78.4587 32.4205 79.8576 31.3891 80.8891C30.3576 81.9205 28.9587 82.5 27.5 82.5ZM11 44V77H27.5V44H11Z" fill="#F15D2D"/>
<path d="M77 11H16.5C15.0413 11 13.6424 11.5795 12.6109 12.6109C11.5795 13.6424 11 15.0413 11 16.5V33H16.5V16.5H77V55H38.5V60.5H44V71.5H38.5V77H63.25V71.5H49.5V60.5H77C78.4587 60.5 79.8576 59.9205 80.8891 58.8891C81.9205 57.8576 82.5 56.4587 82.5 55V16.5C82.5 15.0413 81.9205 13.6424 80.8891 12.6109C79.8576 11.5795 78.4587 11 77 11Z" fill="#F15D2D"/>
</svg>
