<svg width="88" height="88" viewBox="0 0 88 88" fill="none" xmlns="http://www.w3.org/2000/svg">
<path d="M71.5 82.5H66V74.25C65.9956 70.6046 64.5456 67.1098 61.9679 64.5321C59.3902 61.9544 55.8954 60.5044 52.25 60.5H35.75C32.1046 60.5044 28.6098 61.9544 26.0321 64.5321C23.4544 67.1098 22.0044 70.6046 22 74.25V82.5H16.5V74.25C16.5058 69.1464 18.5358 64.2534 22.1446 60.6446C25.7534 57.0358 30.6464 55.0058 35.75 55H52.25C57.3536 55.0058 62.2466 57.0358 65.8554 60.6446C69.4642 64.2534 71.4942 69.1464 71.5 74.25V82.5Z" fill="#F15D2D"/>
<path d="M13.75 16.5C13.0207 16.5 12.3212 16.7897 11.8055 17.3055C11.2897 17.8212 11 18.5207 11 19.25V44H16.5V19.25C16.5 18.5207 16.2103 17.8212 15.6945 17.3055C15.1788 16.7897 14.4793 16.5 13.75 16.5Z" fill="#F15D2D"/>
<path d="M11 5.5V11H24.75V30.25C24.75 35.3554 26.7781 40.2517 30.3882 43.8618C33.9983 47.4719 38.8946 49.5 44 49.5C49.1054 49.5 54.0017 47.4719 57.6118 43.8618C61.2219 40.2517 63.25 35.3554 63.25 30.25V11H77V5.5H11ZM30.25 11H57.75V19.25H30.25V11ZM44 44C40.3533 44 36.8559 42.5513 34.2773 39.9727C31.6987 37.3941 30.25 33.8967 30.25 30.25V24.75H57.75V30.25C57.75 33.8967 56.3013 37.3941 53.7227 39.9727C51.1441 42.5513 47.6467 44 44 44Z" fill="#F15D2D"/>
</svg>
