<svg width="88" height="88" viewBox="0 0 88 88" fill="none" xmlns="http://www.w3.org/2000/svg">
<path d="M77.6158 29.3335C71.9581 16.3828 59.0331 7.3335 43.9998 7.3335C28.9646 7.3335 16.0415 16.3828 10.3838 29.3335" stroke="#F15D2D" stroke-width="4" stroke-linecap="round" stroke-linejoin="round"/>
<path d="M44 25.667C40.5123 29.0771 37.7422 33.1507 35.853 37.6478C33.9639 42.1449 32.9938 46.9747 33 51.8525C33 52.7692 33.033 53.6785 33.1009 54.5805C36.5587 57.9872 39.3033 62.0485 41.1746 66.5274C43.0459 71.0062 44.0064 75.8129 44 80.667C43.9934 75.8126 44.9538 71.0056 46.8251 66.5264C48.6964 62.0472 51.4412 57.9856 54.8992 54.5787C55.3035 49.2561 54.5372 43.9095 52.6543 38.9147C50.7713 33.9199 47.8174 29.3981 44 25.667Z" fill="#BDBDBD" stroke="#F15D2D" stroke-width="4" stroke-linecap="round" stroke-linejoin="round"/>
<path d="M7.33301 44C7.33301 64.251 23.7487 80.6667 43.9997 80.6667C44.0063 75.8123 43.0459 71.0053 41.1746 66.5261C39.3033 62.0469 36.5585 57.9853 33.1005 54.5784C26.2444 47.7893 16.9818 43.9867 7.33301 44Z" fill="#BDBDBD" stroke="#F15D2D" stroke-width="4" stroke-linecap="round" stroke-linejoin="round"/>
<path d="M80.6667 44C80.6667 64.251 64.251 80.6667 44 80.6667C43.9934 75.8123 44.9538 71.0053 46.8251 66.5261C48.6964 62.0469 51.4412 57.9853 54.8992 54.5784C61.7554 47.7893 71.0179 43.9867 80.6667 44Z" fill="#BDBDBD" stroke="#F15D2D" stroke-width="4" stroke-linecap="round" stroke-linejoin="round"/>
</svg>
