<svg width="71" height="74" viewBox="0 0 71 74" fill="none" xmlns="http://www.w3.org/2000/svg">
<path d="M51.413 0.333496H68.111L68.4776 0.384829L68.8406 0.487496L69.0606 0.58283C69.354 0.707496 69.6216 0.894496 69.8636 1.13283L70.0103 1.29416L70.1716 1.50316L70.3696 1.83316L70.5126 2.16316L70.5823 2.39783L70.6336 2.6325L70.6666 2.98083V19.5982C70.6664 20.2949 70.4017 20.9656 69.9261 21.4747C69.4504 21.9839 68.7992 22.2934 68.1041 22.3409C67.409 22.3884 66.7217 22.1703 66.1812 21.7306C65.6407 21.2909 65.2873 20.6624 65.1923 19.9722L65.1666 19.5982V9.7165L41.5533 33.3298C41.0877 33.7956 40.4704 34.0787 39.8137 34.1279C39.1569 34.177 38.5044 33.9888 37.9746 33.5975L37.6666 33.3335L26.5566 22.6635L5.69331 43.5232C5.20262 44.0152 4.54384 44.3032 3.84944 44.3293C3.15503 44.3555 2.47649 44.1177 1.95023 43.6639C1.42397 43.2101 1.08902 42.5739 1.01273 41.8832C0.936432 41.1925 1.12445 40.4985 1.53898 39.9408L1.80665 39.6328L24.6133 16.8262C25.0794 16.361 25.6969 16.0785 26.3537 16.03C27.0104 15.9816 27.6627 16.1704 28.192 16.5622L28.5 16.8262L39.61 27.4962L61.2726 5.8335H51.4093C50.7454 5.83258 50.1042 5.59152 49.6042 5.15481C49.1041 4.7181 48.7789 4.11523 48.6886 3.4575L48.663 3.0835C48.663 2.41896 48.9037 1.77691 49.3405 1.27608C49.7772 0.775259 50.3806 0.44954 51.039 0.359163L51.4166 0.333496H51.413ZM3.74998 55.3335C4.47932 55.3335 5.1788 55.6232 5.69452 56.139C6.21025 56.6547 6.49998 57.3542 6.49998 58.0835V70.9168C6.49998 71.6462 6.21025 72.3456 5.69452 72.8614C5.1788 73.3771 4.47932 73.6668 3.74998 73.6668C3.02063 73.6668 2.32116 73.3771 1.80543 72.8614C1.28971 72.3456 0.999979 71.6462 0.999979 70.9168V58.0835C0.999979 57.3542 1.28971 56.6547 1.80543 56.139C2.32116 55.6232 3.02063 55.3335 3.74998 55.3335ZM24.8333 43.4168C24.8333 42.6875 24.5436 41.988 24.0279 41.4723C23.5121 40.9566 22.8127 40.6668 22.0833 40.6668C21.354 40.6668 20.6545 40.9566 20.1388 41.4723C19.623 41.988 19.3333 42.6875 19.3333 43.4168V70.9168C19.3333 71.6462 19.623 72.3456 20.1388 72.8614C20.6545 73.3771 21.354 73.6668 22.0833 73.6668C22.8127 73.6668 23.5121 73.3771 24.0279 72.8614C24.5436 72.3456 24.8333 71.6462 24.8333 70.9168V43.4168ZM40.4166 48.0002C41.146 48.0002 41.8455 48.2899 42.3612 48.8056C42.8769 49.3213 43.1666 50.0208 43.1666 50.7502V70.9168C43.1666 71.6462 42.8769 72.3456 42.3612 72.8614C41.8455 73.3771 41.146 73.6668 40.4166 73.6668C39.6873 73.6668 38.9878 73.3771 38.4721 72.8614C37.9564 72.3456 37.6666 71.6462 37.6666 70.9168V50.7502C37.6666 50.0208 37.9564 49.3213 38.4721 48.8056C38.9878 48.2899 39.6873 48.0002 40.4166 48.0002ZM61.5 32.4168C61.5 31.6875 61.2102 30.988 60.6945 30.4723C60.1788 29.9566 59.4793 29.6668 58.75 29.6668C58.0206 29.6668 57.3212 29.9566 56.8054 30.4723C56.2897 30.988 56 31.6875 56 32.4168V70.9168C56 71.6462 56.2897 72.3456 56.8054 72.8614C57.3212 73.3771 58.0206 73.6668 58.75 73.6668C59.4793 73.6668 60.1788 73.3771 60.6945 72.8614C61.2102 72.3456 61.5 71.6462 61.5 70.9168V32.4168Z" fill="#F15D2D"/>
</svg>
