<svg width="88" height="88" viewBox="0 0 88 88" fill="none" xmlns="http://www.w3.org/2000/svg">
<path d="M52.25 77H35.75C34.2918 76.9985 32.8937 76.4186 31.8625 75.3875C30.8314 74.3563 30.2515 72.9582 30.25 71.5V57.75H16.5C15.0418 57.7485 13.6437 57.1686 12.6125 56.1375C11.5814 55.1063 11.0015 53.7082 11 52.25V35.75C11.0015 34.2918 11.5814 32.8937 12.6125 31.8625C13.6437 30.8314 15.0418 30.2515 16.5 30.25H30.25V16.5C30.2515 15.0418 30.8314 13.6437 31.8625 12.6125C32.8937 11.5814 34.2918 11.0015 35.75 11H52.25C53.7082 11.0015 55.1063 11.5814 56.1375 12.6125C57.1686 13.6437 57.7485 15.0418 57.75 16.5V30.25H71.5C72.9582 30.2515 74.3563 30.8314 75.3875 31.8625C76.4186 32.8937 76.9985 34.2918 77 35.75V52.25C76.9978 53.708 76.4177 55.1057 75.3867 56.1367C74.3557 57.1677 72.958 57.7478 71.5 57.75H57.75V71.5C57.7478 72.958 57.1677 74.3557 56.1367 75.3867C55.1057 76.4177 53.708 76.9978 52.25 77ZM16.5 35.75V52.25H35.75V71.5H52.25V52.25H71.5V35.75H52.25V16.5H35.75V35.75H16.5Z" fill="#F15D2D"/>
</svg>
