<svg width="20" height="16" viewBox="0 0 20 16" fill="none" xmlns="http://www.w3.org/2000/svg">
<path d="M0 2C0 1.46957 0.210714 0.960859 0.585786 0.585786C0.960859 0.210714 1.46957 0 2 0H18C18.5304 0 19.0391 0.210714 19.4142 0.585786C19.7893 0.960859 20 1.46957 20 2V14C20 14.5304 19.7893 15.0391 19.4142 15.4142C19.0391 15.7893 18.5304 16 18 16H2C1.46957 16 0.960859 15.7893 0.585786 15.4142C0.210714 15.0391 0 14.5304 0 14V2ZM3.519 2L10 7.671L16.481 2H3.52H3.519ZM18 3.329L10.659 9.753C10.4766 9.91278 10.2424 10.0009 10 10.0009C9.75755 10.0009 9.52336 9.91278 9.341 9.753L2 3.329V14H18V3.329Z" fill="white"/>
</svg>
