<svg width="88" height="88" viewBox="0 0 88 88" fill="none" xmlns="http://www.w3.org/2000/svg">
<path d="M60.4997 22H27.4997L18.333 32.7122V69.8353L27.4997 80.6667H60.4997L69.6663 69.8353V32.7103L60.4997 22Z" stroke="#F15D2D" stroke-width="4" stroke-linecap="round" stroke-linejoin="round"/>
<path d="M34.833 36.667H53.1663" stroke="#F15D2D" stroke-width="4" stroke-linecap="round" stroke-linejoin="round"/>
<path d="M60.5 22.0002V12.8335C60.5 11.3748 59.9205 9.97586 58.8891 8.94441C57.8576 7.91296 56.4587 7.3335 55 7.3335H33C31.5413 7.3335 30.1424 7.91296 29.1109 8.94441C28.0795 9.97586 27.5 11.3748 27.5 12.8335V22.0002" stroke="#F15D2D" stroke-width="4" stroke-linecap="round" stroke-linejoin="round"/>
<path d="M43.9997 67.8333C49.0623 67.8333 53.1663 63.7293 53.1663 58.6667C53.1663 53.6041 49.0623 49.5 43.9997 49.5C38.9371 49.5 34.833 53.6041 34.833 58.6667C34.833 63.7293 38.9371 67.8333 43.9997 67.8333Z" stroke="#F15D2D" stroke-width="4" stroke-linecap="round" stroke-linejoin="round"/>
</svg>
