<svg width="26" height="26" viewBox="0 0 26 26" fill="none" xmlns="http://www.w3.org/2000/svg">
<path d="M11.265 6.0889L7.20545 1.40318C6.73745 0.863216 5.87945 0.865616 5.33586 1.41038L1.99747 4.75458C1.00388 5.74932 0.71948 7.22644 1.29428 8.41076C4.7282 15.5203 10.4623 21.2621 17.5674 24.7058C18.7506 25.2806 20.2266 24.9962 21.2202 24.0014L24.5898 20.626C25.1357 20.0801 25.1369 19.2173 24.5922 18.7493L19.8882 14.7116C19.3962 14.2892 18.6318 14.3444 18.1386 14.8388L16.5018 16.4779C16.418 16.5657 16.3077 16.6236 16.1878 16.6427C16.0679 16.6617 15.9451 16.6409 15.8382 16.5835C13.1627 15.0429 10.9434 12.8208 9.40623 10.1435C9.34867 10.0364 9.32782 9.91335 9.3469 9.79327C9.36597 9.67319 9.42391 9.56268 9.51183 9.4787L11.1438 7.8456C11.6382 7.34883 11.6922 6.58087 11.265 6.0877V6.0889Z" stroke="white" stroke-width="2" stroke-linecap="round" stroke-linejoin="round"/>
</svg>
