<svg width="66" height="78" viewBox="0 0 66 78" fill="none" xmlns="http://www.w3.org/2000/svg">
<path d="M58.5425 32.7461L56.1196 31.0917C58.9547 26.916 60.6057 22.0501 60.897 17.0113C61.1883 11.9724 60.109 6.94875 57.774 2.4741L57.2812 1.5765L59.839 0.133301L60.367 1.11303C62.9507 6.05797 64.146 11.6107 63.8257 17.1807C63.5055 22.7507 61.6817 28.1299 58.5484 32.7461H58.5425ZM65.3068 74.5813V77.1333H0.773438V74.5813H15.3697L24.4572 32.5466C24.5981 31.8905 24.9598 31.3025 25.4819 30.8808C26.0039 30.459 26.6548 30.2291 27.326 30.2293H31.5793V21.9984C30.1161 21.6584 28.8099 20.8358 27.8712 19.663C26.9325 18.4901 26.416 17.0355 26.4049 15.5333C26.3782 14.6255 26.5339 13.7216 26.8629 12.8751C27.1919 12.0286 27.6873 11.2567 28.32 10.6052C28.9527 9.95364 29.7097 9.43568 30.5461 9.08198C31.3826 8.72828 32.2815 8.54604 33.1897 8.54604C34.0979 8.54604 34.9968 8.72828 35.8333 9.08198C36.6697 9.43568 37.4267 9.95364 38.0594 10.6052C38.6921 11.2567 39.1875 12.0286 39.5165 12.8751C39.8455 13.7216 40.0012 14.6255 39.9745 15.5333C39.9616 17.0837 39.4104 18.5815 38.4151 19.7705C37.4199 20.9594 36.0425 21.7656 34.5185 22.0512V30.2352H38.7484C39.4197 30.2333 40.0713 30.4618 40.5945 30.8825C41.1177 31.3032 41.4807 31.8906 41.623 32.5466L50.6988 74.5813H65.3068ZM38.5958 46.3392H27.4844L25.5894 55.0981H40.4966L38.5958 46.3392ZM24.95 58.0314L23.055 66.8021H43.0193L41.1244 58.0314H24.95ZM29.6902 36.1018L28.1062 43.4058H37.9622L36.3841 36.1018H29.6902ZM21.3713 74.5872H44.703L43.6529 69.7354H22.4156L21.3713 74.5872ZM19.5644 24.4096C17.8115 21.7489 16.8851 18.629 16.9018 15.4428C16.9185 12.2567 17.8776 9.14668 19.6582 6.5045L17.2294 4.86183C15.1231 7.98374 13.9884 11.6595 13.9686 15.4255C13.9487 19.1915 15.0446 22.879 17.118 26.0229L19.5644 24.4096ZM52.1068 15.5333C52.1104 11.8093 51.0212 8.16619 48.974 5.05543L46.5217 6.66877C48.2703 9.32939 49.1933 12.4476 49.1745 15.6314C49.1557 18.8152 48.196 21.9223 46.4161 24.5621L48.8449 26.193C50.9751 23.0466 52.1114 19.333 52.1068 15.5333ZM9.73184 30.8922C6.89115 26.5745 5.30334 21.5537 5.14488 16.3877C4.98642 11.2217 6.26352 6.11301 8.83424 1.6293L6.29397 0.162634C3.45137 5.11913 2.03957 10.7671 2.21565 16.4781C2.39173 22.1892 4.14877 27.7395 7.2913 32.5114L9.73184 30.8922Z" fill="#F15D2D"/>
</svg>
