<svg width="88" height="88" viewBox="0 0 88 88" fill="none" xmlns="http://www.w3.org/2000/svg">
<path d="M75.4237 39.0865C74.9103 37.6198 73.517 36.6665 71.867 36.6665H45.5037C43.817 36.6665 42.4603 37.6198 41.9103 39.0865L36.667 54.1565L36.7037 74.3598C36.7037 75.7532 37.8403 76.9998 39.2337 76.9998H41.507C42.9003 76.9998 44.0003 75.6065 44.0003 74.2132V69.6665H73.3337V74.2132C73.3337 75.6065 74.4703 76.9998 75.8637 76.9998H78.1003C79.4937 76.9998 80.6303 75.7532 80.6303 74.3598L80.667 69.3365V54.1565L75.4237 39.0865ZM45.5037 40.3332H71.867L75.6437 51.3332H41.727L45.5037 40.3332ZM44.0003 62.3332C41.9837 62.3332 40.3337 60.6832 40.3337 58.6665C40.3337 56.6498 41.9837 54.9998 44.0003 54.9998C46.017 54.9998 47.667 56.6498 47.667 58.6665C47.667 60.6832 46.017 62.3332 44.0003 62.3332ZM73.3337 62.3332C71.317 62.3332 69.667 60.6832 69.667 58.6665C69.667 56.6498 71.317 54.9998 73.3337 54.9998C75.3503 54.9998 77.0003 56.6498 77.0003 58.6665C77.0003 60.6832 75.3503 62.3332 73.3337 62.3332Z" fill="#F15D2D"/>
<path d="M51.333 33H54.9997V11H25.6663V29.3333H7.33301V77H10.9997V33H29.333V14.6667H51.333V33Z" fill="#F15D2D"/>
<path d="M18.333 40.3335H25.6663V47.6668H18.333V40.3335ZM36.6663 18.3335H43.9997V25.6668H36.6663V18.3335ZM18.333 55.0002H25.6663V62.3335H18.333V55.0002ZM18.333 69.6668H25.6663V77.0002H18.333V69.6668Z" fill="#F15D2D"/>
</svg>
